<svg xmlns="http://www.w3.org/2000/svg" viewBox="0 0 326 132"><defs><style>.cls-1{fill:#fff;}.cls-2{fill:#b3b3b2;}.cls-3{fill:#4e4d4d;}.cls-4{fill:#333;}.cls-5{fill:none;}</style></defs><title>chat21-logo</title><g id="Livello_2" data-name="Livello 2"><g id="Livello_1-2" data-name="Livello 1"><path class="cls-1" d="M251.63,7.78c-36.55,0-66.29,26.08-66.29,58.14A52.53,52.53,0,0,0,193.61,94a58.57,58.57,0,0,0,5.59,7.44l1.77,2-.45,2.63L199,115.13l-1,6.08,6.27-2.32,9-3.34,2.33-.86,2.2,1.15a70.41,70.41,0,0,0,9.07,4A73.8,73.8,0,0,0,251.63,124c36.55,0,66.29-26.08,66.29-58.14S288.18,7.78,251.63,7.78Zm-.72,80.66a1.9,1.9,0,0,1,1.84,1.84V97a1.9,1.9,0,0,1-1.84,1.84H212.76A1.84,1.84,0,0,1,210.93,97V94.73C217.31,87,229.51,71.11,236,62.5c3-3.68,4.94-7.45,4.94-10.74,0-4.36-3.29-8.81-10.26-8.81-4.65,0-8.61,3.29-10.84,5.71a1.76,1.76,0,0,1-2.61,0L212.57,44a1.91,1.91,0,0,1-.1-2.52S220,32,231.54,32c13.84,0,21.59,8.81,21.59,19.26,0,6.29-2.71,10.26-6.49,15.68-4.16,5.9-11.52,15-16.65,21.49ZM285.56,97a1.82,1.82,0,0,1-1.74,1.84h-8.32A1.84,1.84,0,0,1,273.65,97V50.59l-8.52,1.84a1.6,1.6,0,0,1-1.94-1.26l-.58-4.74a2,2,0,0,1,.48-1.74L277,33h6.78a1.82,1.82,0,0,1,1.74,1.84Z"/><path class="cls-2" d="M251.63,2.2c-39.63,0-71.87,28.58-71.87,63.72A57.83,57.83,0,0,0,188.89,97a64,64,0,0,0,6.12,8.15l-1.55,9.07L190.8,129.8l15.34-5.67,9-3.34a75.79,75.79,0,0,0,9.79,4.28,79.55,79.55,0,0,0,26.69,4.56c39.63,0,71.87-28.58,71.87-63.72S291.25,2.2,251.63,2.2Zm0,121.85a73.8,73.8,0,0,1-24.82-4.24,70.41,70.41,0,0,1-9.07-4l-2.2-1.15-2.33.86-9,3.34-6.27,2.32,1-6.08,1.55-9.07.45-2.63-1.77-2A58.57,58.57,0,0,1,193.61,94a52.53,52.53,0,0,1-8.27-28.07c0-32.06,29.74-58.14,66.29-58.14s66.29,26.08,66.29,58.14S288.18,124,251.63,124Z"/><path class="cls-3" d="M38.87,89.22c-.62-.62-1.24-.62-2,.21A16.64,16.64,0,0,1,24,95.5,17,17,0,0,1,7.14,78.09,17,17,0,0,1,36,65.73c.62.62,1.44.93,2.16.21l1-1a1.23,1.23,0,0,0,.21-1.85c-1.85-2.37-7.21-6.49-15.25-6.49a21.63,21.63,0,1,0,0,43.26c8.55,0,14.63-5.46,16.17-7.93.41-.62.21-1.13-.31-1.65Z"/><path class="cls-3" d="M72.24,56.56c-8.14,0-13.6,5.25-14.94,6.59V28A1.36,1.36,0,0,0,56,26.69H54.32A1.39,1.39,0,0,0,52.88,28V97.46A1.2,1.2,0,0,0,54,98.8h2a1.2,1.2,0,0,0,1.34-1.34V68.2C57.72,67.69,63.49,61,72,61c7.83,0,12.26,4.94,12.26,14.42v22a1.36,1.36,0,0,0,1.34,1.34h1.85a1.36,1.36,0,0,0,1.34-1.34v-22C88.83,63.15,83,56.56,72.24,56.56Z"/><path class="cls-3" d="M119.52,56.56c-8.55,0-13.8,2.88-14.11,3.09-.52.21-.93.62-.62,1.55l.52,1.24a1.08,1.08,0,0,0,1.54.82,30.25,30.25,0,0,1,12.36-2.78c8.14,0,9.06,4.53,9.06,13.6a33.89,33.89,0,0,0-10.4-1.85c-10.82,0-17.31,6-17.31,13.91,0,8.45,5.87,13.7,13.49,13.7A21.53,21.53,0,0,0,128.38,94l.41,3.71c.21.72.52,1.13,1.24,1.13h1.24a1.36,1.36,0,0,0,1.34-1.34V74.59C132.61,64.08,132.09,56.56,119.52,56.56Zm8.76,32.86a18.75,18.75,0,0,1-13.7,6.39c-5.67,0-9.79-3.81-9.79-9.79S110,75.93,117.88,75.93a26.76,26.76,0,0,1,10.4,2.16Z"/><path class="cls-3" d="M170.41,93c-.31-.52-.72-.93-1.65-.41a22,22,0,0,1-9.37,2.78c-4.84,0-5.36-2.68-5.36-7.52V61.61h14.32a1.24,1.24,0,0,0,1.34-1.34V58.93a1.3,1.3,0,0,0-1.34-1.34H154V46.26a1.36,1.36,0,0,0-1.34-1.34l-1.75.1a1.3,1.3,0,0,0-1.34,1.34V57.59h-4.84c-.72,0-1.24.31-1.24,1v1.65c0,.82.21,1.34,1.24,1.34h4.84V88.19c0,6.59.72,11.64,9.27,11.64A20.5,20.5,0,0,0,170.82,96a1.19,1.19,0,0,0,.31-1.75Z"/><path class="cls-4" d="M253.13,51.27c0-10.45-7.74-19.26-21.59-19.26-11.52,0-19.07,9.49-19.07,9.49a1.91,1.91,0,0,0,.1,2.52l4.65,4.65a1.76,1.76,0,0,0,2.61,0c2.23-2.42,6.2-5.71,10.84-5.71,7,0,10.26,4.45,10.26,8.81,0,3.29-1.94,7.07-4.94,10.74-6.49,8.62-18.68,24.49-25.07,32.23V97a1.84,1.84,0,0,0,1.84,1.84H250.9A1.9,1.9,0,0,0,252.74,97V90.28a1.9,1.9,0,0,0-1.84-1.84H230c5.13-6.49,12.49-15.58,16.65-21.49C250.42,61.53,253.13,57.56,253.13,51.27Z"/><path class="cls-4" d="M283.81,33H277L263.1,44.68a2,2,0,0,0-.48,1.74l.58,4.74a1.6,1.6,0,0,0,1.94,1.26l8.52-1.84V97a1.84,1.84,0,0,0,1.84,1.84h8.32A1.82,1.82,0,0,0,285.56,97V34.81A1.82,1.82,0,0,0,283.81,33Z"/><rect class="cls-5" width="326" height="132"/></g></g></svg>