<svg xmlns="http://www.w3.org/2000/svg" viewBox="0 0 428 580"><defs><style>.cls-1{fill:#b0b0b0;}.cls-2{fill:#4d4d4d;}.cls-3{fill:#29a4db;stroke:#5892b1;stroke-width:1.95px;}.cls-13,.cls-14,.cls-3,.cls-7,.cls-8{stroke-miterlimit:10;}.cls-13,.cls-4{fill:#fff;}.cls-5{fill:#88cedc;}.cls-6{fill:#669ba5;}.cls-7{fill:#00e9e1;stroke:#00afa9;}.cls-14,.cls-7,.cls-8{stroke-width:2px;}.cls-8{fill:#009400;stroke:#006f00;}.cls-9{fill:#bbccdc;opacity:0.6;isolation:isolate;}.cls-10{fill:#c2c2c2;}.cls-11{fill:#ebebeb;}.cls-12{fill:#3768bf;}.cls-13{stroke:#3768bf;stroke-width:3px;}.cls-14{fill:#f9df4d;stroke:#bba73a;}.cls-15{fill:#3c3b39;}.cls-16{fill:none;}</style></defs><title>chat21-sdk-</title><g id="Livello_2" data-name="Livello 2"><g id="Livello_1-2" data-name="Livello 1"><polygon class="cls-1" points="101.82 327.8 64.74 288.55 146.72 288.55 183.8 327.8 101.82 327.8"/><path class="cls-2" d="M146.3,289.52l35.24,37.3h-79.3L67,289.52h79.3m.84-2H62.48l38.92,41.19H186l-38.92-41.19Z"/><rect class="cls-3" x="76.05" y="59" width="179.55" height="307.52" rx="19.46" ry="19.46" transform="translate(-66.53 75.74) rotate(-21.54)"/><rect class="cls-4" x="87.12" y="93.89" width="163.74" height="253.03" transform="translate(-69.12 77.44) rotate(-21.54)"/><rect class="cls-4" x="82.47" y="93" width="73.3" height="2.87" transform="translate(-26.35 50.33) rotate(-21.54)"/><circle class="cls-4" cx="114.9" cy="83.74" r="3.65" transform="translate(-22.72 48.04) rotate(-21.54)"/><rect class="cls-5" x="112.46" y="159.85" width="327.1" height="154.81" rx="25.68" ry="25.68" transform="translate(-37.85 421.53) rotate(-71.1)"/><path class="cls-6" d="M377.58,100.34a24.56,24.56,0,0,1,15.28,31.19L303.53,392.41a24.56,24.56,0,0,1-31.17,15.33h0l-97.87-33.51A24.56,24.56,0,0,1,159.19,343L248.52,82.15a24.56,24.56,0,0,1,31.17-15.32h0l97.87,33.51m.72-2.11-97.86-33.5a26.79,26.79,0,0,0-34,16.67L157,342.27a26.79,26.79,0,0,0,16.67,34l97.87,33.51a26.79,26.79,0,0,0,34-16.67l89.33-260.88a26.79,26.79,0,0,0-16.67-34Z"/><rect class="cls-4" x="151.53" y="167.11" width="248.95" height="140.29" rx="1.12" ry="1.12" transform="translate(-37.86 421.53) rotate(-71.1)"/><circle class="cls-6" cx="325.04" cy="94.06" r="1.21" transform="translate(130.77 371.1) rotate(-71.1)"/><path class="cls-6" d="M325.35,93.18a.93.93,0,1,1-1.18.58h0a.93.93,0,0,1,1.18-.58m.18-.53a1.49,1.49,0,1,0,.93,1.89h0A1.49,1.49,0,0,0,325.53,92.65Z"/><circle class="cls-6" cx="302.48" cy="97.05" r="1.21" transform="translate(112.68 351.78) rotate(-71.1)"/><path class="cls-6" d="M302.79,96.17a.93.93,0,1,1-1.18.58h0a.93.93,0,0,1,1.18-.58m.18-.53a1.49,1.49,0,1,0,.93,1.89h0A1.49,1.49,0,0,0,303,95.64Z"/><path class="cls-6" d="M310.95,101.61a1.58,1.58,0,1,1,1-3l20.63,7.12a1.58,1.58,0,1,1-1,3Z"/><path class="cls-6" d="M332.46,106a1.2,1.2,0,0,1-.78,2.27L311,101.26a1.2,1.2,0,0,1,.78-2.27h0L332.43,106m.24-.7-20.61-7.06A2,2,0,0,0,310.8,102L331.41,109a2,2,0,0,0,1.26-3.68Z"/><path class="cls-6" d="M381.53,142.21a.74.74,0,0,1,.46.94h0L302,376.57a.74.74,0,0,1-.94.46h0L170.51,332.31a.74.74,0,0,1-.46-.94h0L250,97.94a.74.74,0,0,1,.94-.46h0L381.54,142.2m.24-.7L251.16,96.78a1.49,1.49,0,0,0-1.89.93L169.34,331.13a1.49,1.49,0,0,0,.93,1.89l130.61,44.71a1.49,1.49,0,0,0,1.89-.93l79.92-233.42a1.49,1.49,0,0,0-.93-1.89Z"/><path class="cls-7" d="M157.06,147.7c-17.41,6.26-21.7,17.45-33.83,21.81-12.44,4.47-25-.62-40.06,4.8C68.41,179.62,56,194.56,51.67,214c-6,27.33,11.44,68.45,47,96,12.74,9.88,28.78,20.32,43.09,15.35l.26-.09c12.39-4.45,13.07-14.12,30.08-20.35l.26-.09c16.79-6,23.18,1.15,35.51-3.28l.26-.09c14.2-5.28,19.93-25.3,23.49-41,2.56-11.28,3.08-16.67,3.86-28.66-37.53-1-60.06-47.11-34.13-77.21-14.55-9.22-31.16-11.63-44.32-6.89Z"/><path class="cls-7" d="M136.48,102.49c-10.1,4.45-19.74,15.58-23.65,27-3.54,10.34-4.54,24.16,1.69,35l.83-.3c11-4,19.88-14.87,23.31-26C142,127.53,142.6,114,136.48,102.49Z"/><polygon class="cls-1" points="251.43 327.8 292.18 289.2 382.12 289.2 341.36 327.8 251.43 327.8"/><path class="cls-2" d="M379.67,290.17,341,326.82H253.9l38.7-36.65h87.1m4.89-2H291.8L249,328.77h92.76l42.81-40.54Z"/><path class="cls-8" d="M228.68,225.38l-17,46.61c-1.31,3.59-.31,8.14,3.27,9.44l14.88,5.42-9.86,27a13.29,13.29,0,1,0,25,9.1l9.86-27,25.49,9.29-9.86,27a13.23,13.23,0,0,0,1,11.34,12.37,12.37,0,0,0,6.62,5.6l.26.09a13.26,13.26,0,0,0,17-7.93l9.86-27,14.36,5.23c3.64,1.33,7.28-1.53,8.57-5.07l31.5-86.4L243.17,185.64Zm154.85,2a13.26,13.26,0,0,0-17,7.93l-18.21,49.93a13.29,13.29,0,1,0,25,9.1l18.21-49.93A13.26,13.26,0,0,0,383.53,227.38ZM225.4,169.73a13.26,13.26,0,0,0-17,7.93L190.16,227.6a13.29,13.29,0,1,0,25,9.1l18.21-49.93A13.26,13.26,0,0,0,225.4,169.73Z"/><path class="cls-8" d="M349.66,163.82l13.78-7.88c.3-.18.2-.87-.2-1.55s-1.06-1-1.33-.72l-14.31,8.22c-6.05-5.39-14-10.3-24.65-14.17s-20-5.39-28-5.21l-5.63-15.25c-.11-.34-.76-.51-1.48-.3s-1.23.61-1.15,1.05l5.42,14.71c-29,1.73-42.51,27-45.87,34.66L362.5,219.77c2.4-8,8.3-35.69-12.84-55.95Zm-63.75,6.1a7.36,7.36,0,1,1,9.54-4.36A7.46,7.46,0,0,1,285.91,169.93Zm51.18,18.66a7.36,7.36,0,1,1,9.54-4.36A7.46,7.46,0,0,1,337.09,188.59Z"/><ellipse class="cls-9" cx="227.58" cy="492.56" rx="146.72" ry="17.51"/><path class="cls-4" d="M203.44,417.65a13,13,0,1,1,16.54-8.1,13,13,0,0,1-16.54,8.1Z"/><path class="cls-10" d="M211.63,393.71a12.28,12.28,0,1,1-15.6,7.64,12.28,12.28,0,0,1,15.6-7.64m.48-1.41a13.77,13.77,0,1,0,8.57,17.49,13.77,13.77,0,0,0-8.57-17.49h0Z"/><rect class="cls-11" x="249.96" y="327.8" width="90.82" height="162.17"/><path class="cls-4" d="M340.5,265.71a25.16,25.16,0,0,1-11.61,7.86,63.66,63.66,0,1,1-31.15-32.68,25.16,25.16,0,0,1,8.41-11.22,77.42,77.42,0,1,0,34.34,36Z"/><path class="cls-12" d="M270.11,377.17a78.92,78.92,0,1,1,36.73-148.84l2.1,1.1-1.9,1.43a23.62,23.62,0,0,0-7.91,10.55l-.58,1.53-1.47-.71a62.16,62.16,0,1,0,30.42,31.91l-.64-1.51,1.56-.5a23.63,23.63,0,0,0,10.3-6.67l2.19-1.93,1.33,2.39h0a78.91,78.91,0,0,1-72.13,111.24Zm.26-154.83a75.92,75.92,0,1,0,69.69,46.08,26.6,26.6,0,0,1-9.19,6,65.16,65.16,0,1,1-33.92-35.58,26.6,26.6,0,0,1,6.47-8.9A75.43,75.43,0,0,0,270.37,222.34Z"/><path class="cls-13" d="M305.81,298.27a35.15,35.15,0,1,0-28.32,34.81A35.56,35.56,0,0,0,305.81,298.27Z"/><path class="cls-13" d="M321.21,233.4a16.27,16.27,0,1,0,16.27,16.27A16.27,16.27,0,0,0,321.21,233.4Z"/><path class="cls-14" d="M208.1,210.4,85.66,230.29l19.89,122.44L228,332.85Z"/><path class="cls-15" d="M167,317.35l10-8.17,1.66,1.67c4.64,4.65,10.08,5.67,16.18,3.49,4-1.42,5.8-4.79,4.67-8.43a6.18,6.18,0,0,0-4.15-4.06c-2.94-1-5.93-1.85-8.94-2.63a54.15,54.15,0,0,1-11.35-4c-9.82-5.07-12.24-17.75-8.11-25.37A18.41,18.41,0,0,1,177.74,261c5.71-1.91,11.47-2.41,17.22-.09a20,20,0,0,1,8.29,6.73L193.93,276c-.9-.87-1.67-1.72-2.53-2.45-2.75-2.32-5.84-2.55-9.09-1.29a5.21,5.21,0,0,0-3.63,4.68c-.16,2.41.53,4.6,2.77,5.87a21.23,21.23,0,0,0,4.45,1.84c3.93,1.15,7.93,2,11.82,3.3a36.58,36.58,0,0,1,7,3.12c5.56,3.21,8.15,8.36,8.84,14.56.87,7.82-2.12,13.91-8.89,17.77a30.85,30.85,0,0,1-26.53,2.45A23.15,23.15,0,0,1,167,317.35Z"/><path class="cls-15" d="M151.15,265.67l.24,1.45q3.55,21.87,7.11,43.73a27.79,27.79,0,0,1,0,11.25c-1.65,6.71-6.18,10.62-12.52,12.61-5.53,1.73-11.13,2.08-16.69,0a21.05,21.05,0,0,1-9.38-7.29c-.34-.45-.58-.81,0-1.29,3-2.56,6.07-5.14,9.1-7.71a1.7,1.7,0,0,1,.4-.17c.71.81,1.41,1.65,2.15,2.44,3,3.2,6.11,3.9,10.17,2.29a4.56,4.56,0,0,0,3.16-3.54,19.88,19.88,0,0,0,.05-5.6c-1.75-11.32-3.63-22.63-5.47-33.94-.58-3.58-1.12-7.16-1.76-10.72-.19-1.05.11-1.35,1.12-1.5,3.66-.54,7.31-1.16,11-1.76Z"/><rect class="cls-11" x="100.76" y="327.8" width="240.02" height="162.17"/><path class="cls-2" d="M339.8,328.77V489H250.93V328.77H339.8m2-2H249V490.94h92.76V326.82Z"/><path class="cls-1" d="M207.11,467.12a9.1,9.1,0,0,1-6.46-2.68l-9.87-9.87a9.13,9.13,0,0,1-2.36-8.81l.15-.55-7.89-7.89-26.08,26.1a13.13,13.13,0,0,1-22.26-9.31h0a13.13,13.13,0,0,1,3.7-9.26l26.08-26.1-19.36-19.34H138l-5.39-10.77,5-5,10.73,5.48V394l19.34,19.36,5.47-5.47-.14-.54a27.6,27.6,0,0,1,7-25.94,25.81,25.81,0,0,1,16.89-7.83h.28a3,3,0,0,1,2.95,3,3.14,3.14,0,0,1-.87,2.16l-5.08,5.18a15.2,15.2,0,0,0,21.49,21.49l5.2-5.1a3.13,3.13,0,0,1,2.14-.86,3,3,0,0,1,3,3v.34a25.79,25.79,0,0,1-7.83,16.84A27.28,27.28,0,0,1,199,427.33a27.59,27.59,0,0,1-6.74-.83l-.54-.14-5.46,5.46,7.9,7.87.54-.15a8.94,8.94,0,0,1,2.36-.32,9.1,9.1,0,0,1,6.44,2.67l9.87,9.87a9,9,0,0,1,.1,12.73l0,0A8.84,8.84,0,0,1,207.11,467.12Zm-60.78-19.9a5.95,5.95,0,1,0,5.95,6,6,6,0,0,0-5.95-6Z"/><path class="cls-2" d="M197.14,374.51a2,2,0,0,1,2,2v.05a2.14,2.14,0,0,1-.58,1.46l-1.16,1.18-3.94,4A16.16,16.16,0,0,0,216.31,406l4-3.94,1.14-1.13a2.17,2.17,0,0,1,1.49-.6,2,2,0,0,1,2,1.95v.33a24.83,24.83,0,0,1-7.53,16.2A26.31,26.31,0,0,1,199,426.37a26.61,26.61,0,0,1-6.5-.81l-1.07-.27-.78.78-4.38,4.38-1.38,1.38,1.38,1.38L193,440l.8.8,1.09-.3a8,8,0,0,1,2.11-.28,8.13,8.13,0,0,1,5.75,2.39l9.87,9.87a8.07,8.07,0,0,1,.08,11.38,7.88,7.88,0,0,1-5.61,2.32,8.13,8.13,0,0,1-5.77-2.4l-9.87-9.87a8.15,8.15,0,0,1-2.11-7.87l.3-1.09-.8-.8-6.81-6.81L180.68,436l-1.38,1.38-25.39,25.41a12.15,12.15,0,0,1-8.57,3.41,12,12,0,0,1-12-12h0a12.15,12.15,0,0,1,3.41-8.57l25.39-25.41,1.38-1.38-1.38-1.38-18.39-18.37-.57-.57h-4.62l-4.8-9.61,4-4,9.61,4.81v4.64l.57.57,18.37,18.39,1.38,1.38,1.38-1.38,4.4-4.4.78-.78L174,407a26.62,26.62,0,0,1,6.69-25,24.84,24.84,0,0,1,16.2-7.54h.28m-50.82,85.63a6.92,6.92,0,1,0-6.92-6.92,6.92,6.92,0,0,0,6.92,6.92m50.8-87.52h-.34a26.64,26.64,0,0,0-17.53,8.12,28.44,28.44,0,0,0-7.18,26.83l-4.4,4.4-18.36-18.43v-5l-11.94-6-6,6,6,11.94h5l18.39,18.37-25.39,25.41a14.07,14.07,0,0,0,19.9,19.9l25.39-25.41,6.81,6.81a10.06,10.06,0,0,0,2.61,9.75l9.91,9.83a10.11,10.11,0,0,0,7.14,3,9.84,9.84,0,0,0,7-2.89,10,10,0,0,0-.14-14.11l-9.87-9.87a10.1,10.1,0,0,0-7.13-3,9.92,9.92,0,0,0-2.62.35l-6.81-6.79,4.38-4.38a28.52,28.52,0,0,0,26.85-7.2,26.63,26.63,0,0,0,8.12-17.53v-.34a4,4,0,0,0-4-3.92,4.12,4.12,0,0,0-2.83,1.13l-1.17,1.15-4,3.94a14.2,14.2,0,0,1-20.08-20.08l3.94-4,1.15-1.17a4.11,4.11,0,0,0,1.13-2.83,4,4,0,0,0-3.92-4Zm-50.8,85.52a5,5,0,1,1,5-5A5,5,0,0,1,146.33,458.12Z"/><path class="cls-2" d="M339.8,328.77V489H101.73V328.77H339.8m2-2h-242V490.94h242V326.82Z"/><polygon class="cls-1" points="59.38 367.04 100.18 327.8 246.57 327.8 205.78 367.04 59.38 367.04"/><path class="cls-2" d="M244.15,328.77l-38.77,37.35H61.8l38.77-37.3H244.15m4.85-2H99.78L57,368H206.2Z"/><polygon class="cls-1" points="292.18 366.39 251.43 327.8 341.36 327.8 382.12 366.39 292.18 366.39"/><path class="cls-2" d="M341,328.77l38.7,36.65H292.6l-38.7-36.65H341m.78-2H249l42.81,40.54h92.76l-42.82-40.54Z"/><rect class="cls-16" width="428" height="580"/></g></g></svg>