<svg xmlns="http://www.w3.org/2000/svg" viewBox="0 0 428 581.93"><defs><style>.cls-1{fill:#ead6b4;}.cls-1,.cls-2{stroke:#d3bea2;stroke-width:2px;}.cls-1,.cls-2,.cls-3{stroke-miterlimit:10;}.cls-2,.cls-4{fill:none;}.cls-3{fill:#fff;stroke:#908961;stroke-width:1.92px;}</style></defs><title>sdk-chat21-sand</title><g id="Livello_2" data-name="Livello 2"><g id="Livello_1-2" data-name="Livello 1"><path id="BG" class="cls-1" d="M394,302.75v24.5l0,10.15v1.36L393.88,349l0,1.2-.16,10.52-.36,11.89-.07,1.55-.53,9.53-.08,1.15-.85,9.45-.17,1.46-.22,1.86-1,6.83-.5,2.85-.84,4.17-.59,2.59-1.26,4.78-1.31,4.2-1.86,5-1,2.36-1.35,2.84-3.14,5.57-2.14,3.14-2.77,3.51-3.52,3.77-2.22,2-2.71,2.21-3.89,2.74-2.74,1.69-4.67,2.45-4,1.75L347,463.18l-1.32.48L341.57,465l-4.82,1.3-1.31.31-2.08.46-6.19,1.2-3.29.51-4.4.6-2.45.29-4.71.49-5.65.46-5.92.37-5.29.26-6.28.23-4.93.13-1.77,0-4.87.08-4.73.07-2.14,0-4.71,0-4.64,0h-2.3l-4.63,0h-81l-4.63,0h-2.3l-4.64,0-4.71,0-2.14,0-4.72-.07-4.88-.08-1.77,0-4.93-.13-5.23-.19-6.33-.3-5.67-.36-5.89-.48-4.71-.49-2.45-.29-4.4-.6-3.29-.51-6.18-1.2-2.09-.46-1.31-.31L86.43,465l-4.11-1.31L81,463.18l-2.91-1.12-4-1.75-4.67-2.45-2.74-1.69-3.89-2.74-2.71-2.21-2.22-2-3.52-3.77-2.77-3.51-2.14-3.14L46.3,433.2l-.93-1.91L43.94,428l-1.86-5-1.31-4.2-1.26-4.78-.59-2.59-.84-4.17-.5-2.85-1-6.83-.22-1.86-.17-1.46-.85-9.45-.08-1.15-.53-9.53-.07-1.42-.35-11.18-.17-11.35,0-1.2L34,338.76V337.4l0-10.15V256.61l0-10.15v-1.36l.07-10.25,0-1.2.16-10.52.36-11.89.07-1.55.53-9.53.08-1.15.85-9.45.17-1.46.22-1.86,1-6.83.5-2.85.84-4.17.59-2.59L40.76,165l1.31-4.2,1.86-5,1-2.36,1.35-2.84,3.14-5.57L51.57,142l2.77-3.51,3.52-3.77,2.22-2,2.71-2.21,3.89-2.74L69.42,126l4.67-2.45,4-1.75L81,120.69l1.32-.48,4.11-1.31,4.82-1.3,1.31-.31,2.09-.46,6.18-1.2,3.29-.51,4.4-.6,2.45-.29,4.71-.49,5.65-.46,5.92-.37,5.29-.26,6.28-.23,4.93-.13,1.77,0,4.88-.08,4.72-.07,2.14,0,4.71,0,4.64,0h2.3l4.63,0h81l4.63,0h2.3l4.64,0,4.71,0,2.14,0,4.73.07,4.87.08,1.77,0,4.93.13,5.23.19,6.33.3,5.67.36,5.89.48,4.71.49,2.45.29,4.4.6,3.29.51,6.19,1.2,2.08.46,1.31.31,4.82,1.3,4.11,1.31,1.32.48,2.91,1.12,4,1.75,4.67,2.45,2.74,1.69,3.89,2.74,2.71,2.21,2.22,2,3.52,3.77,2.77,3.51,2.14,3.14,3.14,5.57.93,1.91,1.43,3.29,1.86,5,1.31,4.2,1.26,4.78.59,2.59.84,4.17.5,2.85,1,6.83.22,1.86.17,1.46.85,9.45.08,1.15.53,9.53.07,1.42.35,11.18.17,11.35,0,1.2.07,10.25v1.36l0,10.15v46.14Z"/><rect class="cls-2" x="87.87" y="165.81" width="252.25" height="252.25"/><circle class="cls-2" cx="214" cy="291.93" r="180"/><circle class="cls-2" cx="214" cy="291.93" r="76.13"/><line class="cls-2" x1="214" y1="111.93" x2="214" y2="471.86"/><line class="cls-2" x1="57.75" y1="134.64" x2="371.25" y2="449.15"/><line class="cls-2" x1="371.75" y1="135.14" x2="57.25" y2="448.65"/><line class="cls-2" x1="34.03" y1="291.9" x2="393.97" y2="291.9"/><path class="cls-3" d="M84,247q0-35.47,0-70.94c0-8.72,4-12.68,12.75-12.68H191c8.85,0,12.81,4,12.82,13q0,48.24,0,96.48c0,4.57.13,4,4.59,4.91,6.13,1.27,9.55-1.17,11.91-6.38a31.44,31.44,0,0,1,2.51-4c2.34-3.59,3.79-4.05,7.59-2.34,2.3,1,4.59,2.09,6.84,3.22,3,1.54,3.7,3.11,2.67,6.43-1,3.11-2,6.22-3.08,9.27-.94,2.58-.57,4.64,1.57,6.49a42.53,42.53,0,0,1,7.33,8.22,5.11,5.11,0,0,0,6,2.28c3.06-.74,6.15-1.4,9.24-2,3.75-.74,5.1,0,6.48,3.67q1.34,3.53,2.56,7.12c1.17,3.45.58,4.9-2.72,6.66-2.69,1.43-5.39,2.84-8.15,4.14s-3.81,3.14-3.41,6a39.7,39.7,0,0,1-.21,10.69,5.31,5.31,0,0,0,2.83,5.79c2.89,1.71,5.7,3.58,8.55,5.35,2.58,1.6,3.18,3.76,1.9,6.48s-2.44,5.12-3.63,7.7-3.32,3.37-6,2.55c-3.31-1-6.62-2.06-9.89-3.21a5.18,5.18,0,0,0-6.22,1.58,43.63,43.63,0,0,1-8.19,7.36,5.23,5.23,0,0,0-2.37,6.24c.79,3,1.46,6.13,2.06,9.23.7,3.63-.09,5.06-3.45,6.35-2.55,1-5.14,1.85-7.71,2.78-2.86,1-4.9.1-6.25-2.56-1.52-3-3.1-6-4.59-9a4.9,4.9,0,0,0-5.05-3,56.55,56.55,0,0,1-11.95-.47,4.87,4.87,0,0,0-5.3,2.56q-2.65,4.29-5.42,8.51c-2,3-3.62,3.48-6.95,2-2.5-1.1-4.94-2.33-7.42-3.48s-3.47-3.22-2.6-5.95c1.06-3.3,2.09-6.61,3.26-9.88a5.13,5.13,0,0,0-1.6-6.2,47.57,47.57,0,0,1-7.58-8.42,4.94,4.94,0,0,0-5.75-2.12c-3.36.84-6.77,1.49-10.17,2.2a4.31,4.31,0,0,1-5.46-3c-1-2.76-2-5.53-3-8.29s-.13-4.72,2.41-6l9-4.59a5.7,5.7,0,0,0,2.62-2.19c1.61-2.89.33-5-3.08-5q-25.85,0-51.71,0c-8.94,0-12.83-3.92-12.83-12.91Q84,282.35,84,247Zm16.3-.38q0,21.91,0,43.82c0,4.83,0,9.67,0,14.5s1.77,6.66,6.61,6.76c1.47,0,2.94,0,4.41,0,13.87,0,27.74-.09,41.61.05,10.13.11,15,4.9,15.78,14.94a71.06,71.06,0,0,0,1.37,11.57c4.38,17.84,23.61,28.79,42.5,24.21a34.54,34.54,0,0,0,26.56-35.9c-.78-15-12-29.93-29.28-31.74-2.19-.23-4.39-.49-6.56-.83C194,292.57,190,287.86,190,278.47q0-44.45,0-88.89c0-6.21-1.65-7.86-7.84-7.86H108c-6.21,0-7.74,1.55-7.74,7.89Q100.29,218.14,100.3,246.66Zm43.37-70.79c2.41,0,4.83.06,7.24,0,1.38,0,2.52-.64,2.41-2.27-.1-1.45-1.19-1.9-2.44-1.91q-7.24,0-14.48,0c-1.26,0-2.34.51-2.42,1.94-.09,1.63,1.09,2.2,2.46,2.24C138.84,175.93,141.26,175.87,143.67,175.87Zm4.57,145.28a4.34,4.34,0,1,0-4.68,4.11A4.41,4.41,0,0,0,148.25,321.15Z"/><path class="cls-3" d="M332.5,221.94a4,4,0,0,1-1.81,3c-5.45,4.28-6.75,9-3.91,15.82,1.79,4.3,3.38,6.74,8.16,7.47,7.93,1.22,7,1,6.47,8.32-.34,4.74-.65,5.1-5.43,5.27-1.68.06-3.36.14-5,.2a4.85,4.85,0,0,0-4.91,3.65,33.85,33.85,0,0,1-3.52,7.38,4.71,4.71,0,0,0,.16,5.6c1.31,1.91,2.51,3.89,3.87,5.75,1.51,2.06,1.44,3.69-.63,5.41-7.42,6.17-5.74,6.23-12.46-.06-3-2.76-5.66-4.1-9.46-1.83a11.09,11.09,0,0,1-4.47,1.45c-4.12.41-5.5,2.86-6.19,6.63-1.76,9.67-1.09,7.92-9.67,7.52-2.89-.14-4.43-1.27-4.11-4.2.72-6.76-1.3-11.65-8.54-13.31a10.39,10.39,0,0,1-3-1.68,4.39,4.39,0,0,0-5.29.15c-2.17,1.47-4.39,2.88-6.57,4.35a3,3,0,0,1-4.42-.61c-6.82-7.94-6.6-6.1-.23-12.88,2.72-2.89,3.86-5.53,1.8-9.21a13.45,13.45,0,0,1-1.49-4.79c-.48-3.78-2.62-5.54-6.25-5.79l-.31,0c-8.66-2-8.39-.27-7.47-10.34.23-2.55,1.47-3.47,3.86-3.5s4.62-.23,6.92-.33A4.54,4.54,0,0,0,253,238a36.76,36.76,0,0,1,3.69-7.65,4.68,4.68,0,0,0-.14-5.59c-1.36-2-2.65-4-4-6s-1.25-3.39.58-4.92c7.72-6.45,5.93-6.43,12.68-.06,3,2.78,5.69,4.16,9.45,1.85a5.36,5.36,0,0,1,2.37-.81c5.93-.34,8.1-3.82,8.81-9.35.73-5.73,1.21-5.78,6.92-5.22.94.09,1.88.27,2.82.28,2.56,0,3.77,1.42,3.5,3.79-.81,7,1.7,11.08,8.76,13.58,4.38,1.55,7.33,2,11.13-.82,6.54-4.79,5.7-4.44,10.92,1.57C331.37,219.64,332.5,220.53,332.5,221.94Zm-70.16,29.69a27.28,27.28,0,1,0,27.35-27.08A27.07,27.07,0,0,0,262.35,251.62Z"/><path class="cls-3" d="M314.15,381.54c-.08,1.7-1.23,2.58-2.07,3.62-1.06,1.31-2.24,2.51-3.25,3.85-2.23,3,1.66,13.44,5.27,14.29.72.17,1.44.31,2.16.44,6.79,1.13,8.3,3.54,6.53,10.26a2.9,2.9,0,0,1-3.18,2.47c-6.88-.63-10.48,2.67-12.32,9.11-.7,2.45-1.25,4.34.56,6.32a7.92,7.92,0,0,1,.55.77c4.67,6.56,4.62,6.69-1.67,11.75-1.68,1.35-3.46,1.61-4.75,0-4.43-5.5-9.42-5.68-15.42-2.67-2.29,1.15-4,2-4.22,4.72,0,.52-.19,1-.28,1.55-1.12,7-1.26,7-8.46,6.58-3-.19-4.73-1.42-4.47-4.38.53-6-2.18-8.94-7.74-11-3.5-1.27-5.84-1.55-8.82.75-5.62,4.32-8.33,3.56-12-2.72a2.64,2.64,0,0,1,.48-3.69c6.07-4.64,5.59-10.13,2.64-16.27-.86-1.79-1.71-3.06-3.7-3.35-.62-.09-1.25-.18-1.87-.28-7.49-1.24-7.65-1.51-7-9.12.22-2.59,1.51-4,4-3.82,6,.48,9.31-1.86,11.3-7.75,1.18-3.49,1.53-5.79-.8-8.78-4.3-5.51-3.42-8.53,2.83-11.95a2.72,2.72,0,0,1,3.7.6c4.44,5.66,9.61,5.78,15.74,2.86,2.25-1.07,3.77-2,4-4.53,0-.21.06-.42.09-.62,1.33-7.91,1.33-7.85,9.41-7.24,2.32.18,3.78,1.25,3.59,3.45-.54,6.31,2.15,9.63,8.25,11.56,3.33,1.05,5.69,1.44,8.21-1a6.62,6.62,0,0,1,.77-.55c4.86-3.43,9.38-2,11.65,3.63A6,6,0,0,1,314.15,381.54ZM277,431.8a23.17,23.17,0,1,0,.47-46.34A23.17,23.17,0,1,0,277,431.8Z"/><rect class="cls-4" width="428" height="580.51"/><rect class="cls-4" x="2.44" y="1.93" width="423.12" height="580"/></g></g></svg>